<svg version="1.1" viewBox="0.0 0.0 500.0 200.0" fill="none" stroke="none" stroke-linecap="square" stroke-miterlimit="10" xmlns:xlink="http://www.w3.org/1999/xlink" xmlns="http://www.w3.org/2000/svg"><clipPath id="p.0"><path d="m0 0l500.0 0l0 200.0l-500.0 0l0 -200.0z" clip-rule="nonzero"/></clipPath><g clip-path="url(#p.0)"><path fill="#000000" fill-opacity="0.0" d="m0 0l500.0 0l0 200.0l-500.0 0z" fill-rule="evenodd"/><path fill="#000000" fill-opacity="0.0" d="m-47.385826 1.7480315l594.7716 0l0 196.50394l-594.7716 0z" fill-rule="evenodd"/><path fill="#999999" d="m13.450965 84.37364l-10.6875 0l0 69.734375l11.34375 0l0 -55.5q0.375 -1.03125 0.984375 -1.921875q0.625 -0.90625 1.453126 -1.625q1.109375 -0.890625 2.6875 -1.375q1.578125 -0.484375 3.703125 -0.484375q1.9375 0 3.375 0.484375q1.453125 0.484375 2.421875 1.515625q1.03125 1.09375 1.515625 2.765625q0.484375 1.671875 0.484375 3.875l0 52.265625l11.34375 0l0 -52.203125q0 -0.390625 0 -0.671875q0 -0.296875 0 -0.625q0.1875 -1.609375 0.765625 -2.921875q0.59375 -1.328125 1.625 -2.359375q1.03125 -0.96875 2.578125 -1.546875q1.546875 -0.578125 3.671875 -0.578125q2.0 0 3.5 0.515625q1.515625 0.515625 2.546875 1.546875q0.96875 1.09375 1.484375 2.765625q0.515625 1.671875 0.515625 3.875l0 52.203125l11.34375 0l0 -52.078125q0 -5.03125 -1.15625 -8.734375q-1.15625 -3.703125 -3.34375 -6.03125q-2.0 -2.0625 -4.90625 -3.125q-2.90625 -1.0625 -6.515625 -1.0625q-2.640625 0.0625 -4.859375 0.71875q-2.21875 0.640625 -4.03125 1.734375q-1.421875 0.96875 -2.640625 2.265625q-1.21875 1.28125 -2.125 2.765625q-0.703125 -1.609375 -1.703125 -2.890625q-1.0 -1.296875 -2.234375 -2.203125q-1.671875 -1.15625 -3.90625 -1.765625q-2.21875 -0.625 -4.984375 -0.625q-4.890625 0.0625 -8.34375 2.125q-3.453126 2.0625 -5.578126 5.734375l-0.328125 -6.5625zm75.603516 0l0 10.375l23.71875 0l0 49.046875l-23.71875 0l0 10.3125l58.406242 0l0 -10.3125l-22.749992 0l0 -59.421875l-35.65625 0zm22.171875 -18.3125q0 2.90625 1.765625 4.84375q1.78125 1.921875 5.390625 1.921875q3.546875 0 5.34375 -1.921875q1.8125 -1.9375 1.8125 -4.84375q0 -1.609375 -0.515625 -2.953125q-0.515625 -1.359375 -1.546875 -2.265625q-0.828125 -0.84375 -2.125 -1.3125q-1.28125 -0.484375 -2.96875 -0.484375q-1.671875 0 -3.0 0.484375q-1.3125 0.46875 -2.15625 1.3125q-1.03125 0.96875 -1.515625 2.328125q-0.484375 1.34375 -0.484375 2.890625zm76.05663 55.5l25.59375 32.546875l15.140625 0l-32.546875 -40.671875l28.234375 -29.0625l-14.5 0l-22.890625 22.9375l-7.796875 8.375l0 -60.578125l-11.984375 0l0 99.0l11.984375 0l0 -24.109375l8.765625 -8.4375z" fill-rule="nonzero"/><path fill="#ffffff" d="m262.324 142.65489l0 -94.703125l-13.484375 0l0 106.15625l65.40625 0l0 -11.453125l-51.921875 0zm76.48645 -67.4375l0 11.734375l26.84375 0l0 55.484375l-26.84375 0l0 11.671875l66.0625 0l0 -11.671875l-25.734375 0l0 -67.21875l-40.328125 0zm25.09375 -20.703125q0 3.28125 2.0 5.46875q2.0 2.1875 6.09375 2.1875q4.0 0 6.046875 -2.1875q2.046875 -2.1875 2.046875 -5.46875q0 -1.828125 -0.59375 -3.359375q-0.578125 -1.53125 -1.75 -2.546875q-0.9375 -0.953125 -2.40625 -1.5q-1.453125 -0.546875 -3.34375 -0.546875q-1.90625 0 -3.40625 0.546875q-1.484375 0.546875 -2.4375 1.5q-1.15625 1.09375 -1.703125 2.625q-0.546875 1.53125 -0.546875 3.28125zm129.2677 61.015625l0 -1.53125q0 -6.1875 -1.03125 -11.765625q-1.015625 -5.578125 -2.984375 -10.171875q-1.890625 -4.09375 -4.375 -7.40625q-2.46875 -3.3125 -5.609375 -5.640625q-3.5 -2.484375 -7.796875 -3.859375q-4.296875 -1.390625 -9.4062195 -1.390625q-4.078125 0 -7.578125 0.796875q-3.5 0.796875 -6.421875 2.328125q-2.328125 1.25 -4.375 2.96875q-2.046875 1.703125 -3.71875 3.8125l0 -41.5625l-13.484375 0l0 112.0l12.390625 0l0.65625 -8.96875q1.3125 1.671875 2.765625 3.0625q1.46875 1.390625 3.0625 2.546875q3.359375 2.34375 7.546875 3.578125q4.203125 1.234375 9.296875 1.234375q4.4530945 0 8.2812195 -1.09375q3.828125 -1.09375 7.03125 -3.0625q4.453125 -2.84375 7.625 -7.171875q3.171875 -4.34375 5.140625 -9.8125q1.453125 -4.15625 2.21875 -8.921875q0.765625 -4.78125 0.765625 -9.96875zm-13.484375 -1.53125l0 1.53125q0 3.5 -0.4375 6.859375q-0.4375 3.359375 -1.390625 6.265625q-1.15625 3.875 -3.125 7.015625q-1.96875 3.125 -4.890625 5.171875q-2.1875 1.59375 -4.96875 2.4375q-2.7655945 0.84375 -6.1093445 0.84375q-3.5 0 -6.421875 -0.90625q-2.921875 -0.921875 -5.25 -2.59375q-2.328125 -1.6875 -4.125 -3.90625q-1.78125 -2.21875 -3.09375 -4.84375l0 -34.5q1.234375 -2.625 3.015625 -4.84375q1.796875 -2.21875 4.125 -3.90625q2.265625 -1.59375 5.171875 -2.5q2.921875 -0.921875 6.421875 -0.921875q3.21875 0 5.84375 0.734375q2.6249695 0.71875 4.7343445 2.03125q3.0625 1.828125 5.171875 5.046875q2.125 3.203125 3.4375 7.0625q0.9375 3.140625 1.40625 6.671875q0.484375 3.53125 0.484375 7.25z" fill-rule="nonzero"/></g></svg>